<svg width="811" height="811" viewBox="0 0 811 811" fill="none" xmlns="http://www.w3.org/2000/svg">
<path d="M21.3736 143.79C55.9881 112.64 69.3618 53.6173 71.7219 28V143.79H21.3736Z" fill="white" stroke="white"/>
<path d="M15.0801 194C49.6945 162.849 63.0683 103.827 65.4284 78.21V194H15.0801Z" fill="white" stroke="white"/>
<path d="M8 251.383C42.6145 220.232 55.9882 161.21 58.3483 135.593V251.383H8Z" fill="white" stroke="white"/>
<path d="M122.071 143.79C87.4562 112.64 74.0824 53.6173 71.7223 28V143.79H122.071Z" fill="white" stroke="white"/>
<path d="M128.364 194C93.7496 162.849 80.3758 103.827 78.0158 78.21V194H128.364Z" fill="white" stroke="white"/>
<path d="M135.444 251.383C100.83 220.232 87.4558 161.21 85.0957 135.593V251.383H135.444Z" fill="white" stroke="white"/>
<rect x="49.06" y="125" width="48.48" height="358" fill="white"/>
<path d="M49.0618 538V270.364H97.5447V383.665H221.562V270.364H270.175V538H221.562V424.307H97.5447V538H49.0618ZM551.991 360.665H503.116C501.722 352.65 499.152 345.549 495.406 339.364C491.659 333.091 486.998 327.777 481.423 323.42C475.847 319.064 469.487 315.797 462.343 313.619C455.286 311.354 447.663 310.222 439.474 310.222C424.924 310.222 412.031 313.881 400.792 321.199C389.553 328.43 380.754 339.059 374.394 353.085C368.034 367.025 364.854 384.057 364.854 404.182C364.854 424.655 368.034 441.905 374.394 455.932C380.841 469.871 389.64 480.413 400.792 487.557C412.031 494.614 424.881 498.142 439.343 498.142C447.358 498.142 454.851 497.097 461.82 495.006C468.877 492.828 475.193 489.648 480.769 485.466C486.432 481.284 491.18 476.144 495.013 470.045C498.934 463.947 501.635 456.977 503.116 449.136L551.991 449.398C550.161 462.117 546.197 474.053 540.099 485.205C534.087 496.356 526.203 506.201 516.445 514.739C506.688 523.189 495.275 529.811 482.207 534.602C469.138 539.307 454.633 541.659 438.69 541.659C415.167 541.659 394.171 536.214 375.701 525.324C357.231 514.434 342.682 498.708 332.053 478.148C321.424 457.587 316.11 432.932 316.11 404.182C316.11 375.345 321.468 350.689 332.184 330.216C342.9 309.655 357.493 293.93 375.962 283.04C394.432 272.15 415.341 266.705 438.69 266.705C453.587 266.705 467.44 268.795 480.246 272.977C493.053 277.159 504.466 283.301 514.485 291.403C524.504 299.419 532.737 309.263 539.184 320.938C545.718 332.525 549.987 345.767 551.991 360.665ZM596.39 538V270.364H696.754C717.314 270.364 734.564 273.936 748.504 281.08C762.53 288.223 773.115 298.242 780.259 311.136C787.49 323.943 791.106 338.884 791.106 355.96C791.106 373.123 787.447 388.021 780.129 400.653C772.897 413.199 762.225 422.913 748.112 429.795C733.998 436.591 716.661 439.989 696.1 439.989H624.617V399.739H689.566C701.589 399.739 711.433 398.083 719.1 394.773C726.767 391.375 732.43 386.453 736.089 380.006C739.835 373.472 741.708 365.456 741.708 355.96C741.708 346.464 739.835 338.362 736.089 331.653C732.343 324.858 726.636 319.718 718.969 316.233C711.303 312.661 701.415 310.875 689.305 310.875H644.873V538H596.39ZM734.651 416.727L800.907 538H746.805L681.725 416.727H734.651Z" fill="white"/>
</svg>
