<svg width="802" height="357" viewBox="0 0 802 357" fill="none" xmlns="http://www.w3.org/2000/svg">
<g clip-path="url(#clip0_2001_2)">
<path d="M14.8736 111.54C49.4881 81.5797 62.8618 24.8122 65.2219 0.173584V111.54H14.8736Z" fill="white" stroke="white"/>
<path d="M8.58008 159.832C43.1945 129.871 56.5683 73.104 58.9284 48.4653V159.832H8.58008Z" fill="white" stroke="white"/>
<path d="M1.5 215.022C36.1145 185.062 49.4882 128.294 51.8483 103.656V215.022H1.5Z" fill="white" stroke="white"/>
<path d="M115.571 111.54C80.9562 81.5797 67.5824 24.8122 65.2223 0.173584V111.54H115.571Z" fill="white" stroke="white"/>
<path d="M121.864 159.832C87.2496 129.871 73.8758 73.104 71.5158 48.4653V159.832H121.864Z" fill="white" stroke="white"/>
<path d="M128.944 215.022C94.3296 185.062 80.9558 128.294 78.5957 103.656V215.022H128.944Z" fill="white" stroke="white"/>
<line x1="681.5" y1="108.569" x2="681.5" y2="220.137" stroke="white" stroke-width="18"/>
<line x1="739.5" y1="165.658" x2="623.5" y2="165.658" stroke="white" stroke-width="18"/>
<path d="M41.0618 345V77.3636H89.5447V190.665H213.562V77.3636H262.175V345H213.562V231.307H89.5447V345H41.0618ZM543.991 167.665H495.116C493.722 159.65 491.152 152.549 487.406 146.364C483.659 140.091 478.998 134.777 473.423 130.42C467.847 126.064 461.487 122.797 454.343 120.619C447.286 118.354 439.663 117.222 431.474 117.222C416.924 117.222 404.031 120.881 392.792 128.199C381.553 135.43 372.754 146.059 366.394 160.085C360.034 174.025 356.854 191.057 356.854 211.182C356.854 231.655 360.034 248.905 366.394 262.932C372.841 276.871 381.64 287.413 392.792 294.557C404.031 301.614 416.881 305.142 431.343 305.142C439.358 305.142 446.851 304.097 453.82 302.006C460.877 299.828 467.193 296.648 472.769 292.466C478.432 288.284 483.18 283.144 487.013 277.045C490.934 270.947 493.635 263.977 495.116 256.136L543.991 256.398C542.161 269.117 538.197 281.053 532.099 292.205C526.087 303.356 518.203 313.201 508.445 321.739C498.688 330.189 487.275 336.811 474.207 341.602C461.138 346.307 446.633 348.659 430.69 348.659C407.167 348.659 386.171 343.214 367.701 332.324C349.231 321.434 334.682 305.708 324.053 285.148C313.424 264.587 308.11 239.932 308.11 211.182C308.11 182.345 313.468 157.689 324.184 137.216C334.9 116.655 349.493 100.93 367.962 90.0398C386.432 79.1496 407.341 73.7045 430.69 73.7045C445.587 73.7045 459.44 75.7954 472.246 79.9773C485.053 84.1591 496.466 90.3011 506.485 98.4034C516.504 106.419 524.737 116.263 531.184 127.938C537.718 139.525 541.987 152.767 543.991 167.665ZM588.39 345V77.3636H688.754C709.314 77.3636 726.564 80.9356 740.504 88.0795C754.53 95.2235 765.115 105.242 772.259 118.136C779.49 130.943 783.106 145.884 783.106 162.96C783.106 180.123 779.447 195.021 772.129 207.653C764.897 220.199 754.225 229.913 740.112 236.795C725.998 243.591 708.661 246.989 688.1 246.989H616.617V206.739H681.566C693.589 206.739 703.433 205.083 711.1 201.773C718.767 198.375 724.43 193.453 728.089 187.006C731.835 180.472 733.708 172.456 733.708 162.96C733.708 153.464 731.835 145.362 728.089 138.653C724.343 131.858 718.636 126.718 710.969 123.233C703.303 119.661 693.415 117.875 681.305 117.875H636.873V345H588.39ZM726.651 223.727L792.907 345H738.805L673.725 223.727H726.651Z" fill="white"/>
</g>
<defs>
<clipPath id="clip0_2001_2">
<rect width="802" height="357" fill="white"/>
</clipPath>
</defs>
</svg>
